<svg width="29" height="29" viewBox="0 0 29 29" fill="none" xmlns="http://www.w3.org/2000/svg">
<rect width="29" height="29" fill="#F5F5F5"/>
<g clip-path="url(#clip0_320_237)">
<rect width="1520" height="6676" transform="translate(-1060 -6476)" fill="white"/>
<rect width="1520" height="700" transform="translate(-1060 -500)" fill="#EFF9F6"/>
<g filter="url(#filter0_ddddd_320_237)">
<rect x="-1000" y="-453" width="1400" height="600" rx="16" fill="white"/>
</g>
<path d="M259.067 -27.0699C183.896 27.9711 71.0534 45.9391 -26.108 14.7436C-59.5625 4.00237 -134.57 -52.0476 -132.975 -93.9814C-132.945 -94.7777 -132.906 -95.5805 -132.859 -96.3896C-128.114 -177.926 -55.8611 -220.201 -19.1616 -234.662C31.2202 -254.514 104.586 -244.91 130.082 -213.267C146.659 -192.693 166.57 -193.273 184.737 -192.498C202.91 -191.723 298.446 -180.543 314.183 -133.232C328.806 -89.273 299.487 -56.6663 259.067 -27.0699Z" fill="#FFF8E3"/>
<path d="M-7.26467 -100.79C-7.44018 -100.314 -7.61758 -99.8427 -7.79309 -99.3744C-10.7266 -91.5255 -13.3939 -84.8961 -13.926 -82.8234C-13.9563 -82.7045 -13.9789 -82.6007 -13.9958 -82.5119C-14.7678 -78.2703 -6.28477 -46.0742 -8.40632 -32.7738C-10.0996 -22.154 -26.1692 0.265915 -32.5798 8.87186C-39.8795 11.979 -61.0835 -0.800507 -68.1605 -3.91138C-72.3887 -5.77072 -73.1438 -8.93259 -73.0043 -11.3205L-61.8067 -29.8819C-61.8067 -29.8819 -62.3844 -81.7399 -60.6496 -95.6198C-60.6061 -95.9671 -60.5457 -96.3296 -60.4703 -96.7053C-60.4287 -96.9148 -60.3815 -97.1282 -60.3307 -97.3452C-60.3307 -97.3452 -60.3288 -97.3471 -60.3288 -97.349C-56.7894 -112.297 -31.2192 -145.938 -31.2192 -145.938V-145.836L-31.1927 -127.333V-127.331L-31.1548 -100.054C-31.1548 -100.054 -10.719 -133.213 -9.94869 -134.37C-9.51076 -135.025 -7.62322 -136.567 -5.31258 -136.72C-3.71943 -136.828 -1.92422 -136.269 -0.270691 -134.298C-0.0876617 -134.083 0.0918121 -133.849 0.269203 -133.598C0.720299 -132.962 0.939262 -131.973 0.969559 -130.704C1.11853 -124.522 -3.21943 -111.705 -7.26467 -100.79Z" fill="#FE9F73"/>
<path d="M-32.2438 9.11842L-32.9141 8.61926C-26.2249 -0.360672 -10.4869 -22.3766 -8.8183 -32.8426C-7.48925 -41.1742 -10.3766 -57.0938 -12.485 -68.718C-13.7733 -75.8209 -14.7041 -80.9528 -14.4061 -82.5898C-14.3871 -82.6891 -14.3629 -82.8013 -14.3303 -82.9294C-13.9594 -84.3982 -12.5706 -88.0241 -10.8122 -92.6145C-10.0122 -94.7032 -9.10538 -97.0707 -8.18334 -99.5245L-8.12734 -99.6736C-7.97043 -100.092 -7.81227 -100.514 -7.65556 -100.938C-3.94984 -110.873 0.932198 -124.765 0.553394 -130.68C0.517456 -131.251 0.431999 -131.733 0.29995 -132.114C0.040451 -132.865 -0.269611 -133.525 -0.62188 -134.076C-1.73218 -135.822 -3.29043 -136.574 -5.25612 -136.309C-7.4811 -136.012 -9.32017 -134.561 -9.60015 -134.141L-10.2955 -134.605C-9.81682 -135.323 -7.70237 -136.825 -5.36707 -137.138C-3.77517 -137.352 -1.53661 -137.072 0.0828629 -134.526C0.470024 -133.92 0.808918 -133.2 1.08973 -132.388C1.24873 -131.93 1.34611 -131.389 1.38747 -130.734C1.77652 -124.658 -3.14 -110.654 -6.87205 -100.648C-7.02875 -100.223 -7.18733 -99.8 -7.34487 -99.3805L-7.40087 -99.2313C-8.32375 -96.7746 -9.23096 -94.4059 -10.0316 -92.3159C-11.7802 -87.7514 -13.1611 -84.146 -13.52 -82.7246C-13.548 -82.6145 -13.5689 -82.519 -13.5846 -82.4371C-13.8545 -80.953 -12.8389 -75.3526 -11.6628 -68.8678C-9.54374 -57.1847 -6.64159 -41.1838 -7.993 -32.7116C-9.69083 -22.062 -25.5179 0.0891724 -32.2438 9.11842Z" fill="black"/>
<path d="M-105 -16H312V67C312 75.8366 304.837 83 296 83H-89C-97.8366 83 -105 75.8366 -105 67V-16Z" fill="#EBF0FA"/>
<path d="M21.75 21.75C25.7541 17.7459 25.7541 11.2541 21.75 7.25C17.7459 3.24594 11.2541 3.24594 7.25 7.25C3.24594 11.2541 3.24594 17.7459 7.25 21.75C11.2541 25.7541 17.7459 25.7541 21.75 21.75Z" fill="url(#paint0_linear_320_237)"/>
<path fill-rule="evenodd" clip-rule="evenodd" d="M14.5026 24.7537C14.4146 24.7537 14.3268 24.7526 14.2393 24.7504L8.33436 18.8454C8.06702 18.5782 7.89453 18.287 7.89453 17.8722V11.1261C7.89453 10.4147 8.47328 9.83594 9.18465 9.83594H19.8205C20.1211 9.83594 20.3966 9.93997 20.615 10.1135C20.6637 10.1506 20.7097 10.1912 20.7527 10.2348L24.7538 14.2359C24.756 14.3234 24.7571 14.4111 24.7571 14.4991C24.7572 20.1535 20.157 24.7537 14.5026 24.7537Z" fill="#09003F" fill-opacity="0.12"/>
<path d="M17.1738 17.4582C16.9169 17.1066 16.5309 16.8713 16.1007 16.8041C15.6704 16.7369 15.231 16.8432 14.8791 17.0997L14.2038 17.5897C13.2325 16.7108 12.4533 15.6406 11.915 14.4463L12.5843 13.9563C12.9373 13.6992 13.1739 13.3126 13.2422 12.8813C13.3105 12.45 13.205 12.0092 12.9489 11.6556L12.2556 10.6935C12.1306 10.5177 11.9714 10.369 11.7876 10.256C11.6039 10.1431 11.3992 10.0683 11.186 10.0361C10.7646 9.97396 10.3357 10.0791 9.99076 10.3289L8.92705 11.0819C8.58915 11.3258 8.32616 11.6592 8.16776 12.0447C8.00936 12.4301 7.96188 12.8521 8.03066 13.2631C8.33429 15.0327 9.04231 16.7083 10.0996 18.1594C11.1568 19.6105 12.5348 20.798 14.1261 21.6294C14.446 21.7938 14.8003 21.8798 15.16 21.8804C15.633 21.8817 16.0939 21.7309 16.4747 21.4502L17.5145 20.733C17.867 20.477 18.1035 20.0915 18.1718 19.6611C18.2402 19.2308 18.1349 18.791 17.879 18.4383L17.1738 17.4582ZM16.9886 19.998L15.9488 20.733C15.7466 20.8796 15.5078 20.9672 15.2588 20.9862C15.0099 21.0052 14.7605 20.9548 14.5385 20.8406C13.0641 20.0689 11.7888 18.9657 10.8131 17.6176C9.8373 16.2696 9.18761 14.7135 8.9151 13.0719C8.87354 12.8253 8.90191 12.572 8.99696 12.3406C9.09202 12.1093 9.24998 11.9093 9.45293 11.7632L10.4868 11.052C10.6163 10.9605 10.7705 10.9105 10.929 10.9086H11.0425C11.1399 10.9236 11.2333 10.9578 11.3174 11.009C11.4015 11.0603 11.4746 11.1277 11.5326 11.2074L12.2377 12.1874C12.3528 12.3477 12.3998 12.547 12.3685 12.7419C12.3371 12.9367 12.23 13.1112 12.0704 13.2273L11.1023 13.9324C11.0216 13.9916 10.963 14.0762 10.9359 14.1726C10.9088 14.269 10.9148 14.3717 10.9529 14.4643C11.5854 16.0308 12.5929 17.4181 13.8871 18.504C13.9653 18.5661 14.0622 18.5998 14.162 18.5998C14.2618 18.5998 14.3587 18.5661 14.4369 18.504L15.405 17.8048C15.4845 17.7469 15.5748 17.7053 15.6705 17.6823C15.7662 17.6594 15.8655 17.6556 15.9626 17.6711C16.0598 17.6867 16.153 17.7213 16.2367 17.7729C16.3205 17.8246 16.3932 17.8923 16.4508 17.9722L17.1499 18.9403C17.2093 19.0201 17.2522 19.111 17.2762 19.2075C17.3002 19.3041 17.3048 19.4044 17.2898 19.5028C17.2748 19.6011 17.2405 19.6955 17.1888 19.7805C17.1371 19.8655 17.069 19.9394 16.9886 19.998ZM14.4309 12.3129C14.4506 12.2547 14.4821 12.2013 14.5236 12.156C14.5651 12.1107 14.6155 12.0745 14.6717 12.0498C14.728 12.025 14.7887 12.0123 14.8501 12.0123C14.9116 12.0123 14.9723 12.0252 15.0285 12.05C15.7096 12.3019 16.3005 12.7505 16.7261 13.3389C17.1517 13.9273 17.3929 14.629 17.4189 15.3547C17.4221 15.4726 17.3787 15.587 17.2982 15.6731C17.2177 15.7592 17.1064 15.8102 16.9886 15.8148C16.8728 15.8149 16.7614 15.7702 16.6778 15.69C16.5943 15.6098 16.545 15.5003 16.5404 15.3846C16.5213 14.8378 16.341 14.3088 16.0219 13.8644C15.7029 13.4199 15.2595 13.0797 14.7476 12.8866C14.688 12.8716 14.6321 12.8445 14.5834 12.807C14.5348 12.7695 14.4943 12.7224 14.4646 12.6686C14.4349 12.6148 14.4166 12.5555 14.4108 12.4943C14.405 12.4331 14.4118 12.3714 14.4309 12.3129ZM19.5582 15.2412C19.5683 15.3598 19.5313 15.4776 19.4553 15.5693C19.3793 15.6609 19.2703 15.7191 19.1519 15.7312H19.1101C18.9985 15.7303 18.8911 15.6884 18.8084 15.6135C18.7258 15.5385 18.6736 15.4358 18.6619 15.3248C18.5752 14.3576 18.2284 13.432 17.6581 12.646C17.0879 11.8601 16.3155 11.2432 15.4229 10.8608C15.3135 10.814 15.2272 10.7257 15.183 10.6154C15.1387 10.505 15.1401 10.3815 15.1868 10.2722C15.2336 10.1628 15.3219 10.0765 15.4323 10.0322C15.5427 9.98795 15.6661 9.98935 15.7755 10.0361C16.819 10.4787 17.7224 11.197 18.3888 12.1139C19.0552 13.0309 19.4595 14.1119 19.5582 15.2412Z" fill="white"/>
</g>
<defs>
<filter id="filter0_ddddd_320_237" x="-1012" y="-459" width="1424" height="628" filterUnits="userSpaceOnUse" color-interpolation-filters="sRGB">
<feFlood flood-opacity="0" result="BackgroundImageFix"/>
<feColorMatrix in="SourceAlpha" type="matrix" values="0 0 0 0 0 0 0 0 0 0 0 0 0 0 0 0 0 0 127 0" result="hardAlpha"/>
<feMorphology radius="3" operator="erode" in="SourceAlpha" result="effect1_dropShadow_320_237"/>
<feOffset dy="10"/>
<feGaussianBlur stdDeviation="7.5"/>
<feComposite in2="hardAlpha" operator="out"/>
<feColorMatrix type="matrix" values="0 0 0 0 0 0 0 0 0 0 0 0 0 0 0 0 0 0 0.1 0"/>
<feBlend mode="normal" in2="BackgroundImageFix" result="effect1_dropShadow_320_237"/>
<feColorMatrix in="SourceAlpha" type="matrix" values="0 0 0 0 0 0 0 0 0 0 0 0 0 0 0 0 0 0 127 0" result="hardAlpha"/>
<feMorphology radius="4" operator="erode" in="SourceAlpha" result="effect2_dropShadow_320_237"/>
<feOffset dy="4"/>
<feGaussianBlur stdDeviation="3"/>
<feComposite in2="hardAlpha" operator="out"/>
<feColorMatrix type="matrix" values="0 0 0 0 0 0 0 0 0 0 0 0 0 0 0 0 0 0 0.1 0"/>
<feBlend mode="normal" in2="effect1_dropShadow_320_237" result="effect2_dropShadow_320_237"/>
<feColorMatrix in="SourceAlpha" type="matrix" values="0 0 0 0 0 0 0 0 0 0 0 0 0 0 0 0 0 0 127 0" result="hardAlpha"/>
<feMorphology radius="4" operator="erode" in="SourceAlpha" result="effect3_dropShadow_320_237"/>
<feOffset dx="4"/>
<feGaussianBlur stdDeviation="3"/>
<feComposite in2="hardAlpha" operator="out"/>
<feColorMatrix type="matrix" values="0 0 0 0 0 0 0 0 0 0 0 0 0 0 0 0 0 0 0.1 0"/>
<feBlend mode="normal" in2="effect2_dropShadow_320_237" result="effect3_dropShadow_320_237"/>
<feColorMatrix in="SourceAlpha" type="matrix" values="0 0 0 0 0 0 0 0 0 0 0 0 0 0 0 0 0 0 127 0" result="hardAlpha"/>
<feMorphology radius="4" operator="erode" in="SourceAlpha" result="effect4_dropShadow_320_237"/>
<feOffset dy="-4"/>
<feGaussianBlur stdDeviation="3"/>
<feComposite in2="hardAlpha" operator="out"/>
<feColorMatrix type="matrix" values="0 0 0 0 0 0 0 0 0 0 0 0 0 0 0 0 0 0 0.1 0"/>
<feBlend mode="normal" in2="effect3_dropShadow_320_237" result="effect4_dropShadow_320_237"/>
<feColorMatrix in="SourceAlpha" type="matrix" values="0 0 0 0 0 0 0 0 0 0 0 0 0 0 0 0 0 0 127 0" result="hardAlpha"/>
<feOffset dx="-4"/>
<feGaussianBlur stdDeviation="2"/>
<feComposite in2="hardAlpha" operator="out"/>
<feColorMatrix type="matrix" values="0 0 0 0 0 0 0 0 0 0 0 0 0 0 0 0 0 0 0.05 0"/>
<feBlend mode="normal" in2="effect4_dropShadow_320_237" result="effect5_dropShadow_320_237"/>
<feBlend mode="normal" in="SourceGraphic" in2="effect5_dropShadow_320_237" result="shape"/>
</filter>
<linearGradient id="paint0_linear_320_237" x1="7.25" y1="21.75" x2="21.75" y2="7.25" gradientUnits="userSpaceOnUse">
<stop stop-color="#03003C"/>
<stop offset="1" stop-color="#1E19A8"/>
</linearGradient>
<clipPath id="clip0_320_237">
<rect width="1520" height="6676" fill="white" transform="translate(-1060 -6476)"/>
</clipPath>
</defs>
</svg>
