<svg width="50" height="50" viewBox="0 0 50 50" fill="none" xmlns="http://www.w3.org/2000/svg">
<g clip-path="url(#clip0_970_7712)">
<path d="M45.2041 39.4665H20.6435C19.5352 39.4665 18.6367 38.5681 18.6367 37.4598V34.6474C18.6367 33.5391 19.5352 32.6406 20.6435 32.6406H45.2041C46.3124 32.6406 47.2108 33.5391 47.2108 34.6474V37.4598C47.2108 38.5681 46.3124 39.4665 45.2041 39.4665Z" fill="#F5C956"/>
<path d="M47.9932 32.6384H23.4325C22.3242 32.6384 21.4258 31.7399 21.4258 30.6316V27.8192C21.4258 26.7109 22.3242 25.8125 23.4325 25.8125H47.9932C49.1015 25.8125 49.9999 26.7109 49.9999 27.8192V30.6316C49.9999 31.7399 49.1015 32.6384 47.9932 32.6384Z" fill="#F7E969"/>
<path d="M43.8097 25.8103H19.2489C18.1406 25.8103 17.2422 24.9118 17.2422 23.8035V20.9911C17.2422 19.8828 18.1406 18.9844 19.2489 18.9844H43.8096C44.9179 18.9844 45.8163 19.8828 45.8163 20.9911V23.8035C45.8164 24.9118 44.918 25.8103 43.8097 25.8103Z" fill="#F5C956"/>
<path d="M45.2041 18.9899H20.6435C19.5352 18.9899 18.6367 18.0915 18.6367 16.9832V14.1708C18.6367 13.0625 19.5352 12.1641 20.6435 12.1641H45.2041C46.3124 12.1641 47.2108 13.0625 47.2108 14.1708V16.9832C47.2108 18.0915 46.3124 18.9899 45.2041 18.9899Z" fill="#F7E969"/>
<path d="M16.2537 48.023C25.2304 48.023 32.5074 40.746 32.5074 31.7693C32.5074 22.7927 25.2304 15.5156 16.2537 15.5156C7.27703 15.5156 0 22.7927 0 31.7693C0 40.746 7.27703 48.023 16.2537 48.023Z" fill="#37505C"/>
<path d="M28.2637 42.7216C10.0474 40.6026 6.83105 27.3911 11.6475 16.1797C4.91445 18.1658 0 24.3936 0 31.7701C0 40.7468 7.27705 48.0238 16.2536 48.0238C21.0112 48.0237 25.2912 45.9794 28.2637 42.7216Z" fill="#3D5966"/>
<path d="M9.91167 22.0595C4.71831 30.6008 9.6394 42.0876 22.4853 41.5407C25.7083 39.4817 27.8456 35.8728 27.8456 31.7645C27.8456 25.362 22.6554 20.1719 16.253 20.1719C13.9123 20.172 11.734 20.8664 9.91167 22.0595Z" fill="#EEECFF"/>
<path d="M16.2527 43.3602C18.5469 43.3602 20.6853 42.6936 22.4851 41.5438C11.9479 38.32 8.59316 30.2542 9.91143 22.0625C6.74941 24.1328 4.66016 27.706 4.66016 31.7676C4.66016 38.17 9.85039 43.3602 16.2527 43.3602Z" fill="#DEDEDE"/>
<path d="M39.2854 11.9916L38.8155 12.9038C38.2287 14.0429 36.6 14.0429 36.0132 12.9038L35.5432 11.9916C35.0459 11.026 34.2595 10.2397 33.294 9.74236L32.3817 9.27244C31.2426 8.68562 31.2426 7.05691 32.3817 6.47009L33.2939 6.00017C34.2594 5.50281 35.0458 4.71648 35.5431 3.75095L36.0131 2.83875C36.5999 1.69958 38.2286 1.69958 38.8154 2.83875L39.2853 3.75095C39.7827 4.71648 40.569 5.50281 41.5345 6.00017L42.4468 6.47009C43.5859 7.05691 43.5859 8.68562 42.4468 9.27244L41.5345 9.74236C40.5691 10.2398 39.7828 11.026 39.2854 11.9916Z" fill="#F5C956"/>
<path d="M7.32788 12.5859L6.95034 13.3187C6.47895 14.2337 5.17056 14.2337 4.69917 13.3187L4.32163 12.5859C3.92202 11.8103 3.29048 11.1787 2.51479 10.7791L1.78198 10.4015C0.866943 9.93013 0.866943 8.62173 1.78198 8.15034L2.51479 7.7728C3.29038 7.37319 3.92202 6.74165 4.32163 5.96597L4.69917 5.23315C5.17056 4.31812 6.47886 4.31812 6.95034 5.23315L7.32788 5.96597C7.72749 6.74155 8.35903 7.37319 9.13472 7.7728L9.86753 8.15034C10.7826 8.62173 10.7826 9.93013 9.86753 10.4015L9.13472 10.7791C8.35913 11.1787 7.72749 11.8103 7.32788 12.5859Z" fill="#F5C956"/>
<path d="M20.5605 29.1289L20.1562 30.5176H12L12.4043 29.1289H20.5605ZM16.9043 38.7969L12.2549 33.3652L12.2461 32.2754H14.3906C15.0117 32.2754 15.5244 32.1729 15.9287 31.9678C16.3389 31.7568 16.6465 31.4727 16.8516 31.1152C17.0566 30.7578 17.1592 30.3564 17.1592 29.9111C17.1592 29.4131 17.0625 28.9766 16.8691 28.6016C16.6758 28.2207 16.3711 27.9248 15.9551 27.7139C15.5449 27.4971 15.0059 27.3887 14.3379 27.3887H12.0176L12.4307 26H14.3379C15.3574 26 16.1982 26.1553 16.8604 26.4658C17.5283 26.7705 18.0264 27.2158 18.3545 27.8018C18.6826 28.3877 18.8467 29.0967 18.8467 29.9287C18.8467 30.6436 18.709 31.2852 18.4336 31.8535C18.1641 32.416 17.7158 32.8584 17.0889 33.1807C16.4678 33.5029 15.6299 33.6641 14.5752 33.6641L18.8994 38.6914V38.7969H16.9043ZM20.5605 26L20.1562 27.3887H13.582L13.9863 26H20.5605Z" fill="#37505C"/>
</g>
<defs>
<clipPath id="clip0_970_7712">
<rect width="50" height="50" fill="white"/>
</clipPath>
</defs>
</svg>
