<svg width="29" height="29" viewBox="0 0 29 29" fill="none" xmlns="http://www.w3.org/2000/svg">
<path d="M21.75 21.75C25.7541 17.7459 25.7541 11.2541 21.75 7.25C17.7459 3.24594 11.2541 3.24594 7.25 7.25C3.24594 11.2541 3.24594 17.7459 7.25 21.75C11.2541 25.7541 17.7459 25.7541 21.75 21.75Z" fill="url(#paint0_linear_970_10166)"/>
<path fill-rule="evenodd" clip-rule="evenodd" d="M14.5026 24.7537C14.4146 24.7537 14.3268 24.7526 14.2393 24.7504L8.33436 18.8454C8.06702 18.5782 7.89453 18.287 7.89453 17.8722V11.1261C7.89453 10.4147 8.47328 9.83594 9.18465 9.83594H19.8205C20.1211 9.83594 20.3966 9.93997 20.615 10.1135C20.6637 10.1506 20.7097 10.1912 20.7527 10.2348L24.7538 14.2359C24.756 14.3234 24.7571 14.4111 24.7571 14.4991C24.7572 20.1535 20.157 24.7537 14.5026 24.7537Z" fill="#09003F" fill-opacity="0.12"/>
<path fill-rule="evenodd" clip-rule="evenodd" d="M19.8205 18.1015H9.18465C9.05823 18.1015 8.95532 17.9986 8.95532 17.8722V11.4343L14.1727 15.5775C14.2693 15.6542 14.3859 15.6926 14.5025 15.6926C14.6191 15.6926 14.7358 15.6542 14.8324 15.5775L20.0498 11.4343V17.8722C20.0498 17.9986 19.9469 18.1015 19.8205 18.1015ZM19.0209 10.8968H9.98419L14.5026 14.4848L19.0209 10.8968ZM19.8205 9.83594H9.18465C8.47328 9.83594 7.89453 10.4147 7.89453 11.1261V17.8722C7.89453 18.5836 8.47324 19.1624 9.18465 19.1624H19.8205C20.5318 19.1624 21.1106 18.5836 21.1106 17.8722V11.1261C21.1106 10.4147 20.5318 9.83594 19.8205 9.83594Z" fill="white"/>
<defs>
<linearGradient id="paint0_linear_970_10166" x1="7.25" y1="21.75" x2="21.75" y2="7.25" gradientUnits="userSpaceOnUse">
<stop stop-color="#03003C"/>
<stop offset="1" stop-color="#1E19A8"/>
</linearGradient>
</defs>
</svg>
