<svg width="451" height="333" viewBox="0 0 451 333" fill="none" xmlns="http://www.w3.org/2000/svg">
<path d="M392.067 275.93C316.896 330.971 204.053 348.939 106.892 317.744C73.4375 307.002 -1.56965 250.952 0.0250331 209.019C0.0553797 208.222 0.0939429 207.42 0.140946 206.61C4.88597 125.074 77.1389 82.7994 113.838 68.3385C164.22 48.4861 237.586 58.0897 263.082 89.7325C279.659 110.307 299.57 109.727 317.737 110.502C335.91 111.277 431.446 122.457 447.183 169.768C461.806 213.727 432.487 246.334 392.067 275.93Z" fill="#FFF8E3"/>
<path d="M126.789 83.742C120.069 83.3571 104.318 82.6856 90.6249 83.8404C84.9598 84.318 80.0685 79.7926 80.1958 74.1089C80.2478 71.7826 81.0823 69.0762 83.2415 66.0096C91.5555 54.2019 106.007 65.4783 105.869 71.4721C105.869 71.4721 108.79 62.4468 117.664 64.0268C126.538 65.6068 123.4 78.7325 123.4 78.7325C123.4 78.7325 126.263 78.1274 128.248 79.4824C130.2 80.8152 129.148 83.8771 126.789 83.742Z" fill="white"/>
<path d="M199.861 101.092C199.861 101.092 186.571 79.1207 154.689 84.8184C154.689 84.8184 176.152 116.648 199.861 101.092Z" fill="#4F3F98"/>
<path d="M220.613 106.891C220.613 106.891 216.654 62.8489 163.014 47.5703C163.014 47.5703 172.17 113.045 220.613 106.891Z" fill="#7FC6A6"/>
<path d="M147.035 22.6743C154.271 22.2926 179.068 21.2466 196.025 23.7606C198.225 24.0867 199.626 21.4505 198.104 19.8292C197.215 18.8808 195.696 18.1084 193.143 17.9297C193.143 17.9297 194.023 2.09935 182.065 1.05069C168.351 -0.151953 168.184 15.4008 168.184 15.4008C168.184 15.4008 161.951 9.48321 157.456 16.9855C157.456 16.9855 149.686 12.4951 145.767 20.789C145.339 21.6933 146.036 22.7269 147.035 22.6743Z" fill="white"/>
<path d="M360.799 136.329C358.173 138.804 356.016 141.655 354.369 144.75L345.71 144.081L344.187 149.82L342.664 155.56L350.516 159.271C350.412 162.776 350.873 166.321 351.926 169.772L345.328 175.422L348.31 180.558L351.292 185.693L359.469 182.765C361.945 185.391 364.795 187.548 367.891 189.195L367.221 197.854L372.961 199.377L378.7 200.9L382.412 193.048C385.916 193.152 389.461 192.691 392.913 191.638L398.563 198.236L403.698 195.254L408.834 192.272L405.905 184.095C408.531 181.619 410.688 178.769 412.336 175.673L420.995 176.343L422.518 170.603L424.041 164.864L416.188 161.152C416.292 157.647 415.832 154.103 414.779 150.651L421.376 145.001L418.394 139.866L415.412 134.73L407.235 137.659C404.76 135.033 401.909 132.876 398.814 131.228L399.483 122.569L393.744 121.046L388.004 119.523L384.293 127.376C380.788 127.272 377.243 127.732 373.792 128.785L368.142 122.188L363.006 125.17L357.871 128.152L360.799 136.329ZM395.175 141.329C405.604 147.859 408.764 161.606 402.235 172.035C395.705 182.463 381.958 185.624 371.529 179.094C361.101 172.565 357.94 158.817 364.47 148.389C370.999 137.96 384.747 134.8 395.175 141.329Z" fill="#F7AB48"/>
<path d="M415.494 134.504L421.611 145.039L414.989 150.71C416.011 154.105 416.476 157.618 416.372 161.155C416.369 161.256 416.284 161.336 416.183 161.333C416.082 161.33 416.002 161.246 416.005 161.144C416.11 157.607 415.638 154.094 414.604 150.702L414.569 150.587L421.141 144.958L415.331 134.951L407.184 137.869L407.102 137.782C404.669 135.202 401.852 133.051 398.728 131.388C398.638 131.34 398.604 131.229 398.652 131.14C398.699 131.05 398.811 131.016 398.9 131.064C402.024 132.727 404.844 134.872 407.286 137.443L415.494 134.504ZM393.858 120.901C393.913 120.945 393.94 121.019 393.921 121.091C393.895 121.189 393.794 121.247 393.696 121.221L388.104 119.737L384.407 127.56L384.287 127.556C380.75 127.452 377.237 127.923 373.845 128.958L373.73 128.993L368.101 122.421L358.094 128.231L361.012 136.378L360.925 136.46C358.344 138.893 356.193 141.71 354.53 144.834L354.474 144.94L345.848 144.273L342.841 155.605C342.815 155.702 342.715 155.761 342.617 155.735C342.519 155.709 342.461 155.608 342.487 155.511L345.571 143.884L354.263 144.556C355.918 141.474 358.044 138.69 360.586 136.276L357.646 128.067L368.181 121.95L373.853 128.573C377.209 127.562 380.681 127.096 384.178 127.186L387.903 119.305L393.79 120.867C393.816 120.874 393.839 120.886 393.858 120.901ZM422.632 170.458C422.687 170.502 422.714 170.576 422.695 170.648L421.133 176.535L412.441 175.863C410.786 178.945 408.66 181.729 406.118 184.143L409.058 192.351L398.523 198.468L392.851 191.846C389.495 192.857 386.023 193.323 382.526 193.232L378.801 201.114L372.913 199.552C372.815 199.526 372.757 199.425 372.783 199.327C372.809 199.23 372.91 199.171 373.007 199.197L378.6 200.681L382.297 192.859L382.417 192.862C385.954 192.967 389.467 192.495 392.859 191.46L392.974 191.425L398.603 197.998L408.61 192.187L405.692 184.041L405.78 183.958C408.36 181.526 410.511 178.708 412.174 175.585L412.23 175.479L420.856 176.146L422.34 170.553C422.366 170.456 422.466 170.397 422.564 170.423C422.59 170.431 422.613 170.442 422.632 170.458ZM402.35 171.89C402.421 171.947 402.44 172.05 402.39 172.13C395.817 182.627 381.93 185.82 371.432 179.247C366.347 176.064 362.806 171.09 361.461 165.242C360.117 159.395 361.13 153.375 364.314 148.289C364.368 148.204 364.481 148.178 364.567 148.231C364.653 148.286 364.678 148.398 364.625 148.484C361.493 153.486 360.496 159.409 361.818 165.16C363.141 170.912 366.625 175.805 371.626 178.937C381.953 185.402 395.614 182.261 402.079 171.935C402.133 171.849 402.246 171.824 402.332 171.877C402.338 171.881 402.344 171.885 402.35 171.89ZM352.04 169.627C352.049 169.634 352.057 169.642 352.065 169.651C352.131 169.728 352.122 169.844 352.045 169.909L345.563 175.46L351.374 185.467L359.52 182.55L359.603 182.637C362.035 185.217 364.853 187.368 367.976 189.031C368.066 189.078 368.1 189.19 368.052 189.279C368.005 189.368 367.894 189.402 367.804 189.355C364.68 187.692 361.86 185.546 359.418 182.976L351.21 185.915L345.093 175.38L351.806 169.631C351.874 169.573 351.973 169.573 352.04 169.627Z" fill="black"/>
<path d="M375.446 79.4282C375.159 80.9248 375.125 82.4337 375.326 83.9009L372.195 85.8116L373.092 88.1534L373.989 90.4952L377.595 89.8253C378.426 91.0512 379.459 92.1512 380.673 93.0726L379.81 96.6378L382.101 97.6592L384.391 98.6807L386.467 95.657C387.964 95.9443 389.473 95.9786 390.94 95.7776L392.85 98.9079L395.192 98.0107L397.534 97.1137L396.864 93.5079C398.09 92.6771 399.19 91.6435 400.111 90.4298L403.677 91.2925L404.698 89.0023L405.72 86.7122L402.696 84.6359C402.983 83.1393 403.017 81.6304 402.816 80.1632L405.947 78.2525L405.05 75.9107L404.153 73.5689L400.547 74.2388C399.716 73.0129 398.683 71.9129 397.469 70.9915L398.331 67.4264L396.041 66.4049L393.751 65.3834L391.675 68.4071C390.178 68.1198 388.669 68.0856 387.202 68.2866L385.291 65.1562L382.95 66.0534L380.608 66.9504L381.278 70.5562C380.052 71.387 378.952 72.4206 378.03 73.6343L374.465 72.7718L373.444 75.062L372.422 77.3522L375.446 79.4282ZM392.903 73.4402C397.649 75.5568 399.779 81.1193 397.663 85.8645C395.546 90.6097 389.984 92.7406 385.239 90.6241C380.493 88.5076 378.363 82.945 380.479 78.1998C382.596 73.4546 388.158 71.3237 392.903 73.4402Z" fill="#584CD8"/>
<path d="M396.115 66.2785C396.177 66.315 396.202 66.3927 396.173 66.4596C396.14 66.5319 396.056 66.5641 395.984 66.5319L393.802 65.5589L391.74 68.5615L391.648 68.544C390.185 68.263 388.695 68.2228 387.222 68.4245L387.129 68.4372L385.232 65.3286L380.771 67.0377L381.436 70.6185L381.359 70.6712C380.127 71.5055 379.046 72.5303 378.145 73.7173C378.097 73.7802 378.009 73.7917 377.944 73.7446C377.881 73.6968 377.869 73.6069 377.917 73.5441C378.818 72.3573 379.896 71.3291 381.121 70.4871L380.446 66.856L385.352 64.9766L387.276 68.129C388.719 67.9412 390.176 67.9805 391.61 68.2458L393.701 65.2008L396.1 66.2707C396.105 66.273 396.11 66.2757 396.115 66.2785ZM404.244 73.403L405.184 75.8562C405.212 75.9297 405.175 76.0125 405.101 76.0409C405.028 76.0689 404.945 76.0323 404.917 75.9583L404.062 73.7279L400.481 74.393L400.429 74.3157C399.595 73.0844 398.57 72.0032 397.383 71.1022C397.32 71.0544 397.307 70.9645 397.355 70.9016C397.403 70.8387 397.491 70.8258 397.556 70.8743C398.743 71.7754 399.771 72.8529 400.613 74.0777L404.244 73.403ZM402.89 80.0366C402.926 80.0581 402.953 80.0953 402.959 80.14C403.16 81.6135 403.125 83.1023 402.854 84.567L405.899 86.6578L403.759 91.4557L400.169 90.5871C399.279 91.7425 398.221 92.7452 397.022 93.5697L397.697 97.2008L392.791 99.08L390.866 95.9276C389.423 96.1154 387.966 96.0761 386.532 95.8108L384.442 98.8556L382.042 97.7857C381.97 97.7543 381.938 97.6689 381.97 97.5968C382.002 97.5245 382.087 97.4923 382.159 97.5243L384.34 98.4973L386.402 95.4947L386.494 95.5122C387.957 95.7932 389.447 95.8333 390.92 95.6315L391.013 95.6188L392.911 98.7273L397.372 97.0184L396.707 93.4379L396.784 93.3852C398.015 92.5509 399.096 91.5263 399.997 90.3391L400.054 90.2645L403.594 91.1212L405.54 86.7583L402.538 84.6965L402.555 84.6046C402.836 83.141 402.876 81.6519 402.674 80.1785C402.664 80.1001 402.719 80.028 402.797 80.0174C402.831 80.0132 402.863 80.0205 402.89 80.0366ZM397.737 85.7379C397.798 85.7745 397.824 85.8522 397.794 85.919C395.649 90.7286 389.99 92.8961 385.181 90.7509C382.851 89.7117 381.065 87.8275 380.153 85.4452C379.24 83.0629 379.31 80.4678 380.349 78.138C380.381 78.0657 380.466 78.0335 380.538 78.0655C380.611 78.0977 380.642 78.1823 380.61 78.2544C379.602 80.5144 379.535 83.0317 380.42 85.3428C381.306 87.6536 383.037 89.4825 385.298 90.4896C389.963 92.5706 395.452 90.468 397.533 85.8025C397.565 85.7302 397.65 85.698 397.722 85.7302C397.727 85.7325 397.732 85.7352 397.737 85.7379ZM373.518 74.9352C373.579 74.9717 373.605 75.0495 373.575 75.1163L372.602 77.2978L375.605 79.3596L375.587 79.4516C375.306 80.9152 375.266 82.4045 375.468 83.8779L375.481 83.9707L372.372 85.8681L374.081 90.3291L377.662 89.664L377.714 89.7413C378.549 90.9726 379.573 92.0539 380.76 92.955C380.823 93.0029 380.835 93.0927 380.788 93.1556C380.74 93.2183 380.651 93.2304 380.587 93.183C379.4 92.2816 378.372 91.2043 377.53 89.9793L373.899 90.6538L372.02 85.7479L375.172 83.8236C374.984 82.3805 375.023 80.9233 375.289 79.4894L372.244 77.3985L373.314 74.9997C373.346 74.9274 373.431 74.8953 373.503 74.9274C373.508 74.9297 373.513 74.9325 373.518 74.9352Z" fill="black"/>
<path d="M353.813 101.761V276.228H101.846V101.761C101.846 97.608 105.211 94.2422 109.364 94.2422H346.295C350.447 94.2422 353.813 97.608 353.813 101.761Z" fill="#21111D"/>
<path d="M346.199 108.125V269.286H107.982V108.125C107.982 104.289 111.091 101.18 114.928 101.18H339.253C343.09 101.179 346.199 104.289 346.199 108.125Z" fill="#4B3AC9"/>
<path opacity="0.38" d="M346.198 210.913C332.553 201.984 318.692 206.757 313.761 220.858C313.098 212.978 300.658 204.668 289.122 218.537C293.619 202.37 278.366 189.415 263.578 197.235C263.578 197.235 263.578 171.537 240.549 175.834C240.549 175.834 243.281 173.069 242.952 162.045C242.952 162.045 238.547 164.204 218.13 147.062C218.13 147.062 211.716 153.687 208.979 163.424C208.979 163.424 192.907 157.814 189.568 178.449C189.568 178.449 172.536 172.164 174.525 196.728C174.525 196.728 149.346 183.114 146.527 214.063C138.587 196.714 111.209 190.042 108.5 216.369C108.5 216.369 108.318 216.614 107.982 217.085V269.287H346.199L346.198 210.913Z" fill="white"/>
<path d="M255.452 235.268H188.784C184.175 235.268 180.439 231.532 180.439 226.924V207.024C180.439 202.416 184.175 198.68 188.784 198.68H255.452C260.061 198.68 263.797 202.416 263.797 207.024V226.924C263.797 231.532 260.061 235.268 255.452 235.268Z" fill="white"/>
<path d="M205.775 208.748C204.823 208.103 203.918 207.627 203.059 207.321C202.2 207.014 201.35 206.861 200.508 206.861C199.118 206.861 197.981 207.269 197.094 208.084C196.209 208.899 195.765 209.924 195.765 211.16C195.765 212.167 196.05 212.987 196.619 213.621C197.187 214.256 198.413 214.973 200.294 215.771C200.404 215.815 200.567 215.881 200.787 215.968C202.909 216.832 204.325 217.664 205.036 218.462C205.528 218.998 205.903 219.61 206.16 220.3C206.417 220.989 206.546 221.722 206.546 222.499C206.546 224.326 205.911 225.827 204.643 227.003C203.373 228.179 201.749 228.767 199.769 228.767C198.774 228.767 197.786 228.597 196.807 228.258C195.829 227.919 194.841 227.41 193.846 226.732V224.5C194.929 225.343 195.954 225.969 196.922 226.379C197.89 226.789 198.828 226.995 199.736 226.995C201.235 226.995 202.422 226.584 203.297 225.764C204.172 224.943 204.61 223.828 204.61 222.417C204.61 221.377 204.312 220.527 203.716 219.865C203.119 219.203 201.76 218.429 199.638 217.543C197.439 216.635 195.935 215.719 195.126 214.795C194.316 213.87 193.912 212.692 193.912 211.259C193.912 209.476 194.527 208.018 195.758 206.886C196.988 205.754 198.594 205.188 200.574 205.188C201.47 205.188 202.346 205.311 203.199 205.557C204.052 205.803 204.911 206.183 205.775 206.697V208.748H205.775Z" fill="#FF424D"/>
<path d="M212.093 224.712C212.093 225.729 212.232 226.402 212.511 226.73C212.79 227.058 213.291 227.222 214.012 227.222C214.385 227.222 214.773 227.159 215.178 227.033C215.582 226.908 216.036 226.713 216.539 226.451V228.108C216.069 228.316 215.607 228.472 215.153 228.576C214.699 228.68 214.242 228.732 213.783 228.732C212.525 228.732 211.639 228.431 211.125 227.829C210.61 227.228 210.354 226.178 210.354 224.679V214.686H207.121V213.275H210.419V209.813L211.699 208.336H212.093V213.275H216.162V214.686H212.093V224.712Z" fill="#FF424D"/>
<path d="M226.319 226.958C225.477 227.604 224.692 228.066 223.964 228.345C223.236 228.624 222.474 228.763 221.675 228.763C220.428 228.763 219.416 228.402 218.64 227.68C217.863 226.958 217.475 226.023 217.475 224.874C217.475 223.201 218.232 221.883 219.747 220.92C221.262 219.957 223.441 219.416 226.286 219.295V217.687C226.286 216.55 226.015 215.721 225.474 215.201C224.933 214.682 224.071 214.422 222.889 214.422C222.156 214.422 221.418 214.57 220.674 214.865C219.93 215.16 219.121 215.631 218.246 216.276V214.619C219.099 214.05 219.917 213.629 220.699 213.355C221.481 213.082 222.255 212.945 223.021 212.945C224.76 212.945 226.018 213.347 226.795 214.151C227.571 214.955 227.96 216.266 227.96 218.081V226.023C227.96 226.351 228.003 226.595 228.091 226.753C228.178 226.912 228.315 226.991 228.501 226.991C228.764 226.991 229.217 226.707 229.863 226.138C230.016 225.996 230.131 225.892 230.208 225.826L230.224 227.352C229.732 227.811 229.278 228.156 228.862 228.386C228.447 228.616 228.08 228.73 227.763 228.73C227.281 228.73 226.929 228.591 226.704 228.312C226.48 228.033 226.352 227.582 226.319 226.958ZM226.286 225.383V220.641C224.098 220.674 222.37 221.068 221.101 221.823C219.832 222.578 219.198 223.573 219.198 224.809C219.198 225.586 219.46 226.198 219.985 226.647C220.51 227.095 221.232 227.32 222.151 227.32C222.775 227.32 223.42 227.164 224.087 226.852C224.755 226.54 225.488 226.051 226.286 225.383Z" fill="#FF424D"/>
<path d="M232.637 228.44V213.278H234.326V217.019C235.267 215.575 236.126 214.547 236.902 213.935C237.679 213.322 238.489 213.016 239.331 213.016C239.79 213.016 240.236 213.109 240.668 213.295C241.1 213.481 241.551 213.771 242.022 214.164L241.103 215.772C240.644 215.401 240.225 215.127 239.848 214.952C239.471 214.777 239.107 214.689 238.757 214.689C238.078 214.689 237.389 215.018 236.689 215.674C235.989 216.33 235.202 217.391 234.326 218.857V228.44L232.637 228.44Z" fill="#FF424D"/>
<path d="M245.942 224.712C245.942 225.729 246.082 226.402 246.361 226.73C246.64 227.058 247.14 227.222 247.862 227.222C248.234 227.222 248.622 227.159 249.027 227.033C249.432 226.908 249.886 226.713 250.389 226.451V228.108C249.918 228.316 249.456 228.472 249.002 228.576C248.548 228.68 248.092 228.732 247.632 228.732C246.374 228.732 245.488 228.431 244.974 227.829C244.46 227.228 244.203 226.178 244.203 224.679V214.686H240.971V213.275H244.269V209.813L245.548 208.336H245.942V213.275H250.011V214.686H245.942L245.942 224.712Z" fill="#FF424D"/>
<path d="M122.179 107.109C122.179 107.864 121.567 108.476 120.812 108.476C120.057 108.476 119.445 107.864 119.445 107.109C119.445 106.354 120.057 105.742 120.812 105.742C121.567 105.742 122.179 106.354 122.179 107.109Z" fill="#584CD8"/>
<path d="M126.407 107.109C126.407 107.864 125.795 108.476 125.04 108.476C124.286 108.476 123.674 107.864 123.674 107.109C123.674 106.354 124.286 105.742 125.04 105.742C125.795 105.742 126.407 106.354 126.407 107.109Z" fill="#584CD8"/>
<path d="M130.636 107.109C130.636 107.864 130.024 108.476 129.269 108.476C128.514 108.476 127.902 107.864 127.902 107.109C127.902 106.354 128.514 105.742 129.269 105.742C130.024 105.742 130.636 106.354 130.636 107.109Z" fill="#584CD8"/>
<path d="M323.655 105.195V106.17H323.104V107.845H323.655V109.022H334.399V105.196L323.655 105.195ZM334.031 108.709H324.023V105.508H334.031V108.709Z" fill="#584CD8"/>
<path d="M333.421 106.008H332.359V108.195H333.421V106.008Z" fill="#584CD8"/>
<path d="M331.641 106.008H330.58V108.195H331.641V106.008Z" fill="#584CD8"/>
<path d="M329.811 106.008H328.75V108.195H329.811V106.008Z" fill="#584CD8"/>
<path d="M405.552 285.943C405.624 286.156 405.697 286.375 405.766 286.601C406.462 288.844 406.949 291.598 406.063 293.524L405.256 294.672C405.255 294.673 405.254 294.675 405.252 294.675L404.913 295.156C404.912 295.156 404.912 295.158 404.913 295.159L385.212 323.125C385.212 323.125 385.211 323.126 385.211 323.127C380.971 329.145 371.686 327.097 367.462 325.763C367.453 325.762 367.444 325.758 367.436 325.755C366.738 325.502 366.025 325.249 365.299 324.993C365.294 324.991 365.292 324.99 365.292 324.99C356.348 321.831 345.401 318.312 338.704 317.405C330.2 316.254 316.051 310.253 306.65 305.835C306.425 305.729 306.202 305.623 305.981 305.518C305.227 305.163 304.507 304.817 303.828 304.488C303.599 304.378 303.376 304.269 303.158 304.161C300.168 302.703 298.049 301.589 297.353 301.165C296.277 300.509 293.069 298.976 289.535 297.339C285.687 295.558 281.451 293.655 279.153 292.628C278.903 292.515 278.676 292.413 278.474 292.323C278.437 292.307 278.402 292.291 278.368 292.276C277.778 292.013 277.439 291.862 277.439 291.862C273.766 287.518 279.875 279.444 287.953 279.388C296.03 279.331 313.214 285.325 313.214 285.325C313.214 285.325 261.931 237.667 257.854 234.002C252.633 229.309 253.605 222.581 259.895 221.036C263.726 220.096 287.383 237.838 287.383 237.838L308.991 254.199L309.345 254.468C307.954 243.93 318.796 240.658 318.796 240.658C322.687 234.524 330.797 232.343 330.797 232.343C330.797 232.343 332.043 229.733 340.882 225.85C349.72 221.969 366.772 247.912 371.172 252.317C374.7 255.848 396.88 277.489 405.552 285.943Z" fill="#FE9F73"/>
<path d="M305.548 299.495C305.557 299.564 305.544 299.635 305.51 299.701C304.709 301.249 304.172 303.05 303.828 304.492C303.6 304.382 303.377 304.273 303.158 304.165C303.511 302.714 304.057 300.933 304.867 299.369C304.96 299.19 305.177 299.121 305.355 299.212C305.467 299.27 305.536 299.377 305.548 299.495Z" fill="black"/>
<path d="M308.238 301.385C308.245 301.453 308.233 301.525 308.199 301.59C307.497 302.95 306.995 304.508 306.65 305.842C306.425 305.735 306.202 305.63 305.98 305.525C306.331 304.185 306.841 302.638 307.554 301.258C307.648 301.082 307.866 301.011 308.044 301.102C308.156 301.161 308.224 301.269 308.238 301.385Z" fill="black"/>
<path d="M277.929 294.664C277.937 294.673 277.948 294.681 277.96 294.689C277.948 294.681 277.938 294.674 277.928 294.666C277.928 294.666 277.927 294.665 277.929 294.664Z" fill="#F07162"/>
<path d="M289.502 293.681C289.815 295.028 289.676 296.465 289.533 297.341C285.685 295.56 281.449 293.657 279.151 292.63C278.901 292.517 278.674 292.415 278.473 292.325C278.632 291.761 278.819 291.185 279.034 290.601C279.406 289.593 280.56 289.034 281.704 289.274C281.76 289.284 281.815 289.297 281.87 289.313L288.032 291.013C288.032 291.013 289.007 291.547 289.502 293.681Z" fill="#F07162"/>
<path d="M281.716 289.275C281.712 289.275 281.709 289.274 281.706 289.275C280.917 289.292 280 290.06 279.74 290.764C279.506 291.401 279.312 292.025 279.153 292.631C278.902 292.519 278.675 292.417 278.474 292.327C278.437 292.31 278.401 292.295 278.367 292.28C278.515 291.739 278.691 291.186 278.899 290.624C279.227 289.736 280.482 288.935 281.485 289.212L281.716 289.275Z" fill="#FDC9BC"/>
<path d="M261.335 222.69C260.762 222.243 259.899 222.346 259.377 222.948L256.094 226.729C255.544 227.362 255.579 228.243 256.153 228.726L256.151 228.729L256.21 228.773L261.431 232.672L261.483 232.711L261.485 232.708C262.03 233.066 262.83 232.884 263.308 232.289L266.174 228.727C266.631 228.159 266.63 227.373 266.18 226.93L266.182 226.927L266.135 226.885L261.392 222.734L261.338 222.687L261.335 222.69Z" fill="#F07162"/>
<path d="M261.335 222.69C260.762 222.243 259.899 222.346 259.377 222.948L256.094 226.729C255.544 227.362 255.579 228.243 256.153 228.725L256.151 228.729L256.21 228.773L256.689 229.13L256.691 229.127C256.125 228.651 256.092 227.777 256.636 227.147L259.886 223.381C260.404 222.782 261.258 222.676 261.823 223.117L261.825 223.114L261.391 222.734L261.337 222.687L261.335 222.69Z" fill="#FDC9BC"/>
<path d="M361.137 314.581C361.191 314.694 361.302 314.776 361.436 314.788C365.942 315.187 372.264 311.727 372.531 311.579C372.709 311.481 372.772 311.259 372.675 311.08C372.577 310.903 372.354 310.838 372.176 310.936C372.113 310.971 365.783 314.435 361.501 314.057C361.299 314.039 361.121 314.188 361.103 314.39C361.097 314.458 361.11 314.523 361.137 314.581Z" fill="black"/>
<path d="M357.114 311.494C357.157 311.583 357.234 311.654 357.335 311.686C361.649 313.047 368.568 311.032 368.861 310.946C369.055 310.889 369.166 310.684 369.109 310.49C369.052 310.295 368.847 310.184 368.653 310.242C368.583 310.262 361.655 312.279 357.556 310.985C357.362 310.924 357.156 311.032 357.095 311.225C357.066 311.318 357.075 311.413 357.114 311.494Z" fill="black"/>
<path d="M297.185 301.441C296.265 300.879 293.646 299.598 289.4 297.632C285.509 295.83 281.228 293.908 279.022 292.922L278.343 292.617C278.308 292.602 278.269 292.585 278.232 292.568C277.648 292.307 277.308 292.157 277.308 292.157L277.241 292.127L277.194 292.07C275.833 290.461 275.656 288.225 276.708 285.936C278.264 282.552 282.625 279.106 287.95 279.069C294.725 279.021 307.594 283.107 311.899 284.542C304.427 277.599 261.336 237.565 257.64 234.241C254.869 231.751 253.644 228.555 254.362 225.693C254.977 223.237 256.966 221.427 259.819 220.727L259.972 221.349C257.358 221.991 255.539 223.631 254.983 225.849C254.324 228.476 255.477 231.436 258.068 233.765C262.1 237.39 312.919 284.615 313.431 285.092L314.551 286.132L313.108 285.629C312.937 285.569 295.884 279.654 287.954 279.709C282.897 279.745 278.762 283.003 277.29 286.203C276.344 288.261 276.468 290.174 277.637 291.601C277.763 291.658 278.062 291.791 278.498 291.985C278.533 292.001 278.565 292.015 278.6 292.03L279.284 292.337C281.491 293.323 285.775 295.248 289.669 297.05C293.937 299.027 296.578 300.32 297.519 300.894L297.185 301.441Z" fill="black"/>
<path d="M309.381 254.335L315.593 258.722L309.346 251.586L309.381 254.335Z" fill="#F07162"/>
<path d="M319.003 240.933L328.601 248.154L319.937 239.172L318.889 240.588L319.003 240.933Z" fill="#F07162"/>
<path d="M330.846 232.635L340.082 239.313L331.973 231.242L330.846 232.635Z" fill="#F07162"/>
<path d="M405.308 285.262C405.39 285.48 405.471 285.708 405.552 285.945C405.624 286.157 405.697 286.376 405.766 286.602C397.424 278.467 374.512 256.116 370.946 252.545C369.968 251.567 368.403 249.574 366.42 247.052C362.96 242.649 358.22 236.62 353.524 232.115C348.165 226.976 343.999 224.95 341.141 226.091C341.098 226.108 341.054 226.126 341.012 226.144C335.837 228.418 333.292 230.254 332.09 231.354C331.306 232.072 331.091 232.475 331.085 232.486L331.02 232.613L330.881 232.653C330.881 232.653 330.88 232.654 330.878 232.655C330.692 232.705 324.125 234.555 320.133 239.372C319.752 239.829 319.394 240.317 319.067 240.832L319.004 240.931L318.89 240.966C318.862 240.974 316.196 241.797 313.739 243.872C311.162 246.048 309.764 248.718 309.566 251.835C309.512 252.668 309.546 253.533 309.664 254.429L309.541 254.445L309.345 254.47L309.028 254.512C309.014 254.407 309.002 254.304 308.991 254.201C308.39 248.792 311.012 245.332 313.343 243.368C315.637 241.438 318.035 240.574 318.589 240.39C322.299 234.643 329.5 232.385 330.587 232.072C330.967 231.475 332.918 229.001 340.754 225.56C340.803 225.536 340.855 225.516 340.906 225.495C348.049 222.643 359.852 237.66 366.924 246.656C368.893 249.162 370.447 251.141 371.4 252.093C374.842 255.539 396.33 276.504 405.308 285.262Z" fill="black"/>
<path d="M125.735 202.21C125.56 202.686 125.382 203.157 125.207 203.626C122.273 211.475 119.606 218.104 119.074 220.177C119.044 220.295 119.021 220.399 119.004 220.488C118.232 224.73 126.715 256.926 124.594 270.226C122.9 280.846 106.831 303.266 100.42 311.872C93.1205 314.979 71.9165 302.199 64.8395 299.089C60.6113 297.229 59.8562 294.067 59.9957 291.679L71.1933 273.118C71.1933 273.118 70.6156 221.26 72.3504 207.38C72.3939 207.033 72.4543 206.67 72.5297 206.295C72.5713 206.085 72.6185 205.872 72.6693 205.655C72.6693 205.655 72.6712 205.653 72.6712 205.651C76.2106 190.703 101.781 157.062 101.781 157.062V157.164L101.807 175.667V175.669L101.845 202.946C101.845 202.946 122.281 169.787 123.051 168.63C123.489 167.975 125.377 166.433 127.687 166.28C129.281 166.172 131.076 166.731 132.729 168.702C132.912 168.917 133.092 169.151 133.269 169.402C133.72 170.038 133.939 171.027 133.97 172.296C134.119 178.478 129.781 191.295 125.735 202.21Z" fill="#FE9F73"/>
<path d="M94.5195 204.607L101.807 165.664L101.845 192.943L94.5195 204.607Z" fill="#F07162"/>
<path d="M346.199 108.125V113.036H107.982V108.125C107.982 104.289 111.091 101.18 114.928 101.18H339.253C343.09 101.179 346.199 104.289 346.199 108.125Z" fill="#DCF4FF"/>
<path d="M100.756 312.118L100.086 311.619C106.775 302.639 122.513 280.623 124.182 270.157C125.511 261.826 122.623 245.906 120.515 234.282C119.227 227.179 118.296 222.047 118.594 220.41C118.613 220.311 118.637 220.199 118.67 220.071C119.041 218.602 120.429 214.976 122.188 210.386C122.988 208.297 123.895 205.929 124.817 203.476L124.873 203.326C125.03 202.908 125.188 202.486 125.344 202.062C129.05 192.127 133.932 178.235 133.553 172.32C133.517 171.749 133.432 171.267 133.3 170.886C133.04 170.135 132.73 169.475 132.378 168.924C131.268 167.178 129.71 166.426 127.744 166.691C125.519 166.988 123.68 168.439 123.4 168.859L122.705 168.395C123.183 167.677 125.298 166.175 127.633 165.862C129.225 165.648 131.463 165.928 133.083 168.474C133.47 169.08 133.809 169.8 134.09 170.612C134.249 171.07 134.346 171.611 134.387 172.266C134.777 178.342 129.86 192.346 126.128 202.352C125.971 202.777 125.813 203.2 125.655 203.62L125.599 203.769C124.676 206.225 123.769 208.594 122.968 210.684C121.22 215.249 119.839 218.854 119.48 220.275C119.452 220.386 119.431 220.481 119.415 220.563C119.145 222.047 120.161 227.647 121.337 234.132C123.456 245.815 126.358 261.816 125.007 270.288C123.309 280.938 107.482 303.089 100.756 312.118Z" fill="black"/>
<path d="M60.3543 291.892L59.6387 291.46L70.7748 273C70.7458 270.212 70.2581 220.752 71.9365 207.325C71.9802 206.976 72.0421 206.6 72.1206 206.209C72.1628 205.996 72.2111 205.778 72.2631 205.556L72.2913 205.443C75.6475 191.693 97.1593 162.613 101.448 156.91C101.781 156.464 101.964 156.227 101.964 156.227L102.626 156.736C102.626 156.737 102.445 156.971 102.116 157.411C97.8386 163.1 76.3589 192.133 73.0899 205.697V205.814L73.0516 205.855C73.0115 206.03 72.9739 206.202 72.9403 206.372C72.8655 206.745 72.8068 207.1 72.7658 207.428C71.0544 221.122 71.606 272.592 71.6119 273.11L71.6131 273.229L60.3543 291.892Z" fill="black"/>
<path d="M123.284 190.055C123.233 190.055 123.181 190.04 123.135 190.009C120.935 188.543 117.858 187.789 117.828 187.782C117.683 187.747 117.594 187.601 117.629 187.457C117.664 187.312 117.81 187.223 117.954 187.258C118.084 187.289 121.155 188.041 123.434 189.561C123.557 189.643 123.591 189.811 123.508 189.935C123.457 190.013 123.371 190.055 123.284 190.055Z" fill="black"/>
<path d="M121.667 191.891C121.615 191.891 121.563 191.876 121.517 191.845C119.317 190.378 116.241 189.625 116.21 189.618C116.066 189.583 115.977 189.437 116.011 189.292C116.046 189.148 116.193 189.059 116.337 189.093C116.466 189.125 119.538 189.877 121.817 191.396C121.941 191.479 121.974 191.647 121.891 191.77C121.839 191.848 121.754 191.891 121.667 191.891Z" fill="black"/>
<path d="M132.47 171.963C132.735 171.278 132.355 170.463 131.59 170.113L126.903 167.972C126.137 167.622 125.271 167.868 124.927 168.518L124.923 168.516L124.893 168.582L122.046 174.813L122.016 174.879L122.02 174.881C121.754 175.566 122.135 176.381 122.901 176.731L127.588 178.873C128.353 179.222 129.218 178.976 129.563 178.326L129.566 178.328L129.597 178.262L132.443 172.031L132.473 171.965L132.47 171.963Z" fill="#F07162"/>
<path d="M132.469 171.963C132.735 171.278 132.354 170.463 131.59 170.113L126.902 167.972C126.136 167.622 125.271 167.868 124.926 168.518L124.923 168.516L124.892 168.582L124.646 169.12L124.65 169.122C124.995 168.472 125.86 168.226 126.626 168.576L131.313 170.718C132.078 171.067 132.459 171.882 132.193 172.568L132.197 172.57L132.443 172.031L132.473 171.965L132.469 171.963Z" fill="#FDC9BC"/>
<path d="M113.745 277.925C113.893 277.925 114.037 277.849 114.118 277.712C116.836 273.125 116.378 264.641 116.357 264.282C116.343 264.044 116.139 263.863 115.9 263.876C115.661 263.889 115.479 264.094 115.493 264.333C115.498 264.418 115.957 272.912 113.373 277.271C113.251 277.477 113.319 277.743 113.525 277.864C113.594 277.905 113.67 277.925 113.745 277.925Z" fill="black"/>
<path d="M108.415 280.629C108.531 280.629 108.646 280.583 108.731 280.492C112.376 276.598 113.758 268.216 113.815 267.861C113.853 267.625 113.693 267.403 113.457 267.365C113.22 267.326 112.999 267.488 112.961 267.723C112.947 267.808 111.562 276.201 108.099 279.9C107.936 280.075 107.945 280.349 108.119 280.512C108.203 280.59 108.309 280.629 108.415 280.629Z" fill="black"/>
<path d="M443.318 322.727L442.736 323.104C442.852 322.965 443.042 322.84 443.318 322.727Z" fill="white"/>
<path d="M262.137 131.612C273.177 136.801 277.898 150.005 269.954 166.909C265.175 177.076 255.304 189.141 247.704 192.365C247.696 192.368 247.688 192.372 247.68 192.375C247.671 192.379 247.661 192.383 247.652 192.387C247.652 192.387 247.652 192.386 247.652 192.386C247.406 192.488 247.195 192.509 247.027 192.43C245.725 191.818 247.396 185.246 249.253 179.344C251.212 173.117 250.66 166.372 247.672 160.568L261.788 139.488C259.018 132.846 256.551 128.987 262.137 131.612Z" fill="#F7AB48"/>
<path d="M265.432 174.798C265.332 174.75 265.212 174.784 265.15 174.876C260.175 182.376 253.41 189.689 247.636 192.148L247.565 192.177C247.374 192.257 247.225 192.273 247.124 192.226C246.414 191.892 246.657 188.351 249.469 179.413C251.451 173.114 250.906 166.432 247.934 160.585L261.807 139.869L261.775 138.873C261.436 138.074 261.103 137.311 260.802 136.625C259.632 133.951 258.622 131.642 259.144 131.134C259.339 130.944 259.919 130.886 261.54 131.591L261.524 131.091C260.073 130.48 259.25 130.398 258.828 130.809C258.081 131.537 258.949 133.52 260.387 136.807C260.739 137.61 261.136 138.517 261.532 139.465L247.41 160.554L247.471 160.673C250.44 166.442 250.997 173.05 249.037 179.277C248.286 181.663 247.277 185.083 246.733 187.828C245.967 191.694 246.479 192.424 246.931 192.636C247.086 192.709 247.266 192.724 247.468 192.682L247.472 192.709L247.76 192.589L247.669 192.387H247.669L247.779 192.58L247.792 192.574C253.645 190.092 260.496 182.7 265.525 175.126C265.601 175.011 265.557 174.856 265.432 174.798Z" fill="#21111D"/>
<path d="M227.632 115.401C216.592 110.213 203.413 115.004 195.469 131.908C190.69 142.075 187.701 157.375 190.069 165.283C190.071 165.292 190.074 165.3 190.076 165.308C190.079 165.318 190.081 165.328 190.084 165.337C190.085 165.337 190.085 165.337 190.085 165.337C190.164 165.592 190.283 165.767 190.45 165.846C191.753 166.458 195.746 160.978 199.105 155.782C202.649 150.3 208.195 146.421 214.57 145.017L221.791 120.697C228.674 118.591 233.219 118.027 227.632 115.401Z" fill="#F7AB48"/>
<path d="M190.354 166.046C190.199 165.973 190.072 165.845 189.976 165.662L189.947 165.679L189.851 165.34C187.364 157.035 190.724 141.467 195.264 131.807C199.047 123.758 204.244 118.002 210.293 115.161C215.895 112.529 222.087 112.541 227.729 115.192C229.63 116.086 230.418 116.755 230.363 117.432C230.28 118.471 228.199 119.069 224.751 120.059C223.908 120.301 222.957 120.574 221.973 120.873L214.749 145.205L214.618 145.234C208.282 146.629 202.84 150.417 199.295 155.9C197.937 158 195.948 160.96 194.182 163.13C191.695 166.187 190.806 166.259 190.354 166.046ZM190.281 165.195L190.302 165.266C190.363 165.464 190.446 165.588 190.547 165.636C191.257 165.97 193.828 163.523 198.915 155.654C202.5 150.108 207.992 146.264 214.391 144.82L221.608 120.511L221.725 120.476C222.753 120.161 223.748 119.875 224.626 119.623C227.431 118.818 229.853 118.123 229.912 117.396C229.935 117.098 229.543 116.545 227.536 115.602C215.517 109.954 203.011 116.39 195.674 132C191.173 141.576 187.834 156.984 190.281 165.195Z" fill="#21111D"/>
<path d="M297.704 18.0817C297.005 15.6102 294.631 14.3869 292.247 15.2711C281.628 19.2083 252.827 33.362 232.846 75.8754C223.149 96.5072 213.339 131.429 212.531 147.635C212.349 151.279 214.384 154.672 217.687 156.224L237.06 165.329C240.362 166.881 244.273 166.283 246.963 163.817C258.924 152.854 279.551 123.015 289.248 102.384C307.662 63.2033 300.932 29.4927 297.704 18.0817Z" fill="#584CD8"/>
<path d="M280.19 48.3959C287.355 51.7636 294.637 53.7414 301.436 54.4081C302.318 37.4116 299.48 24.3649 297.703 18.0817C297.004 15.6102 294.63 14.3869 292.245 15.2711C286.2 17.5126 274.261 23.0689 261.412 35.2804C266.35 40.3257 272.73 44.8901 280.19 48.3959Z" fill="#F7AB48"/>
<path d="M279.868 90.4208C287.168 83.1209 287.168 71.2854 279.868 63.9854C272.568 56.6855 260.732 56.6855 253.433 63.9854C246.133 71.2853 246.133 83.1209 253.433 90.4208C260.732 97.7208 272.568 97.7208 279.868 90.4208Z" fill="#F7AB48"/>
<path d="M274.52 88.1644C280.574 83.8193 281.959 75.3895 277.614 69.3358C273.269 63.2821 264.839 61.8969 258.785 66.242C252.732 70.587 251.347 79.0169 255.692 85.0706C260.037 91.1243 268.467 92.5094 274.52 88.1644Z" fill="#FDEACF"/>
<path d="M227.273 89.2581C227.386 89.2919 227.507 89.232 227.549 89.121C229.348 84.3627 231.204 79.9008 233.051 75.9709C252.834 33.8776 281.094 19.6471 292.326 15.4825C293.369 15.0956 294.456 15.1232 295.385 15.5601C296.405 16.0392 297.151 16.9564 297.487 18.1423C298.341 21.1633 299.355 25.4071 300.139 30.6537C300.16 30.7927 300.306 30.8758 300.436 30.8205C300.525 30.782 300.578 30.6872 300.564 30.5906C299.751 25.0893 298.707 20.7914 297.923 18.019C297.551 16.7046 296.718 15.6856 295.578 15.1499C294.538 14.661 293.327 14.6282 292.168 15.0578C287.171 16.9106 277.116 21.4368 265.911 30.9333C252.463 42.3313 241.27 57.4193 232.641 75.778C230.79 79.7171 228.93 84.1901 227.126 88.9605C227.08 89.0832 227.147 89.2205 227.273 89.2581Z" fill="#21111D"/>
<path d="M265.937 141.081C265.838 140.991 265.681 141.009 265.603 141.118C258.805 150.61 252.024 158.873 246.81 163.652C244.177 166.066 240.387 166.644 237.156 165.126L218.106 156.172C217.993 156.119 217.858 156.168 217.805 156.281C217.752 156.394 217.8 156.529 217.913 156.583L236.963 165.536C240.361 167.133 244.347 166.525 247.116 163.986C252.347 159.191 259.15 150.902 265.969 141.381C266.036 141.287 266.023 141.158 265.937 141.081Z" fill="#21111D"/>
<path d="M253.158 77.5862C253.287 77.5897 253.392 77.4848 253.39 77.3557C253.363 75.4097 253.765 73.4289 254.647 71.5524C257.759 64.9323 265.676 62.0775 272.296 65.189C272.808 65.4297 273.297 65.6999 273.763 65.9955C273.866 66.0609 274.002 66.0342 274.071 65.9333L274.072 65.9324C274.144 65.8271 274.115 65.6819 274.007 65.6136C273.525 65.3075 273.019 65.0279 272.488 64.7787C265.642 61.561 257.455 64.5131 254.237 71.3594C253.325 73.3011 252.909 75.3503 252.937 77.3636C252.939 77.485 253.037 77.5828 253.158 77.5862Z" fill="#21111D"/>
<path d="M218.74 179.141C216.476 178.077 221.494 162.633 222.559 160.369L229.17 146.302C230.234 144.038 241.241 125.386 243.505 126.45C245.769 127.514 238.432 147.892 237.369 150.156L230.758 164.222C229.693 166.486 221.005 180.206 218.74 179.141Z" fill="#F7AB48"/>
<path d="M275.11 60.7835C280.327 63.4661 283.756 68.3648 284.787 73.7878C284.808 73.9 284.91 73.9782 285.024 73.9685C285.156 73.9575 285.25 73.8344 285.226 73.7044C284.116 67.8813 280.309 62.6504 274.542 60.0033C266.074 56.1171 256.165 59.032 251.05 66.4973C250.979 66.6016 250.993 66.751 251.096 66.8243C251.202 66.8993 251.343 66.8705 251.414 66.7673C256.557 59.2464 266.682 56.4489 275.11 60.7835Z" fill="#21111D"/>
<path d="M279.176 91.1115C279.099 91.001 278.944 90.9834 278.843 91.0722C273.487 95.7652 265.645 97.131 258.799 93.9136C258.178 93.6219 257.582 93.2995 257.01 92.9498C256.902 92.8837 256.762 92.918 256.697 93.0273C256.635 93.1338 256.668 93.2717 256.774 93.3363C257.36 93.6946 257.97 94.0252 258.606 94.3237C265.619 97.6202 273.653 96.2203 279.14 91.4124C279.228 91.3363 279.243 91.2062 279.176 91.1115Z" fill="#21111D"/>
<path d="M280.283 48.7034C279.609 48.3864 278.932 48.0536 278.253 47.7028C278.142 47.6453 278.099 47.5087 278.156 47.3975C278.214 47.2864 278.351 47.2394 278.461 47.3004C290.08 53.3084 301.341 54.1734 301.453 54.1815C301.578 54.1905 301.672 54.2987 301.663 54.4237C301.654 54.5484 301.546 54.6424 301.421 54.6335C301.314 54.6257 291.236 53.851 280.283 48.7034Z" fill="#21111D"/>
<path d="M301.636 54.3993C301.86 50.8066 301.964 46.964 301.751 43.6495C301.743 43.5245 301.635 43.4297 301.511 43.438C301.386 43.446 301.291 43.5536 301.299 43.6785C301.511 46.9755 301.407 50.8006 301.184 54.3782L301.636 54.3993Z" fill="#21111D"/>
</svg>
